<svg width="38" height="38" viewBox="0 0 38 38" fill="none" xmlns="http://www.w3.org/2000/svg">
<rect x="1.29763" y="1.29763" width="34.5962" height="34.5962" rx="17.2981" fill="#0551AB"/>
<rect x="1.29763" y="1.29763" width="34.5962" height="34.5962" rx="17.2981" stroke="white" stroke-width="2.59615"/>
<path d="M12.1957 12.8913H14.5957L16.1957 11.2617H20.9957L22.5957 12.8913H24.9957C25.42 12.8913 25.827 13.063 26.1271 13.3687C26.4271 13.6743 26.5957 14.0888 26.5957 14.521V24.2988C26.5957 24.731 26.4271 25.1455 26.1271 25.4511C25.827 25.7567 25.42 25.9284 24.9957 25.9284H12.1957C11.7714 25.9284 11.3644 25.7567 11.0643 25.4511C10.7643 25.1455 10.5957 24.731 10.5957 24.2988V14.521C10.5957 14.0888 10.7643 13.6743 11.0643 13.3687C11.3644 13.063 11.7714 12.8913 12.1957 12.8913ZM18.5957 15.3358C17.5348 15.3358 16.5174 15.765 15.7673 16.5291C15.0171 17.2931 14.5957 18.3294 14.5957 19.4099C14.5957 20.4904 15.0171 21.5266 15.7673 22.2907C16.5174 23.0547 17.5348 23.4839 18.5957 23.4839C19.6566 23.4839 20.674 23.0547 21.4241 22.2907C22.1743 21.5266 22.5957 20.4904 22.5957 19.4099C22.5957 18.3294 22.1743 17.2931 21.4241 16.5291C20.674 15.765 19.6566 15.3358 18.5957 15.3358ZM18.5957 16.9654C19.2322 16.9654 19.8427 17.223 20.2928 17.6814C20.7428 18.1398 20.9957 18.7616 20.9957 19.4099C20.9957 20.0582 20.7428 20.6799 20.2928 21.1384C19.8427 21.5968 19.2322 21.8543 18.5957 21.8543C17.9592 21.8543 17.3487 21.5968 16.8986 21.1384C16.4486 20.6799 16.1957 20.0582 16.1957 19.4099C16.1957 18.7616 16.4486 18.1398 16.8986 17.6814C17.3487 17.223 17.9592 16.9654 18.5957 16.9654Z" fill="white"/>
</svg>
