<svg width="130" height="130" viewBox="0 0 130 130" fill="none" xmlns="http://www.w3.org/2000/svg">
<circle cx="65" cy="65" r="65" fill="#F4F5F6"/>
<g clip-path="url(#clip0_88_1983)">
<rect width="114" height="114" rx="57" transform="matrix(4.37114e-08 1 1 -4.37114e-08 8 8)" fill="url(#paint0_linear_88_1983)"/>
<mask id="mask0_88_1983" style="mask-type:alpha" maskUnits="userSpaceOnUse" x="8" y="8" width="114" height="114">
<rect width="114" height="114" rx="20.2667" transform="matrix(4.37114e-08 1 1 -4.37114e-08 8 8)" fill="#40879D"/>
</mask>
<g mask="url(#mask0_88_1983)">
<ellipse cx="75.3667" cy="72.8333" rx="75.3667" ry="72.8333" transform="matrix(4.37114e-08 1 1 -4.37114e-08 -55.333 35.8672)" fill="url(#paint1_linear_88_1983)"/>
</g>
<mask id="mask1_88_1983" style="mask-type:alpha" maskUnits="userSpaceOnUse" x="8" y="8" width="114" height="114">
<rect width="114" height="114" rx="20.2667" transform="matrix(-1.31134e-07 -1 -1 1.31134e-07 122 122)" fill="#84DFFB"/>
</mask>
<g mask="url(#mask1_88_1983)">
<ellipse cx="75.3667" cy="72.8333" rx="75.3667" ry="72.8333" transform="matrix(-1.31134e-07 -1 -1 1.31134e-07 185.333 94.1328)" fill="url(#paint2_linear_88_1983)"/>
</g>
</g>
<path d="M41.4678 86.5186C45.1445 79.9057 50.9165 75.2656 57.6234 73.2977C54.3626 71.5725 51.7551 68.7545 50.2214 65.2981C48.6876 61.8418 48.3169 57.9485 49.1691 54.246C50.0214 50.5436 52.0468 47.2477 54.9188 44.89C57.7909 42.5323 61.3421 41.25 65 41.25C68.6579 41.25 72.2091 42.5323 75.0812 44.89C77.9532 47.2477 79.9786 50.5436 80.8308 54.246C81.6831 57.9485 81.3124 61.8418 79.7786 65.2981C78.2449 68.7545 75.6374 71.5725 72.3766 73.2977C79.0835 75.2632 84.8555 79.9033 88.5322 86.5186C88.6332 86.6839 88.701 86.8687 88.7315 87.062C88.762 87.2553 88.7547 87.453 88.7099 87.6432C88.6652 87.8335 88.5839 88.0123 88.471 88.169C88.3581 88.3257 88.2159 88.457 88.053 88.5551C87.89 88.6531 87.7097 88.7158 87.5229 88.7394C87.3361 88.763 87.1466 88.7471 86.9659 88.6925C86.7852 88.6379 86.6169 88.5459 86.4712 88.4218C86.3256 88.2978 86.2055 88.1444 86.1183 87.9709C81.6509 79.9372 73.758 75.1422 65 75.1422C56.242 75.1422 48.3491 79.9372 43.8817 87.9709C43.7945 88.1444 43.6744 88.2978 43.5288 88.4218C43.3831 88.5459 43.2148 88.6379 43.0341 88.6925C42.8534 88.7471 42.6639 88.763 42.4771 88.7394C42.2903 88.7158 42.11 88.6531 41.947 88.5551C41.7841 88.457 41.6419 88.3257 41.529 88.169C41.4161 88.0123 41.3348 87.8335 41.2901 87.6432C41.2453 87.453 41.238 87.2553 41.2685 87.062C41.299 86.8687 41.3668 86.6839 41.4678 86.5186ZM78.4882 58.1986C78.4882 55.4219 77.6971 52.7076 76.215 50.3989C74.7329 48.0903 72.6263 46.2908 70.1617 45.2283C67.6971 44.1657 64.985 43.8877 62.3686 44.4294C59.7521 44.9711 57.3488 46.3081 55.4624 48.2715C53.5761 50.2349 52.2914 52.7364 51.771 55.4597C51.2506 58.183 51.5177 61.0058 52.5386 63.5711C53.5594 66.1363 55.2883 68.3289 57.5064 69.8716C59.7245 71.4142 62.3323 72.2375 65 72.2375C68.576 72.2331 72.0042 70.7525 74.5328 68.1207C77.0614 65.4888 78.4839 61.9206 78.4882 58.1986Z" fill="white"/>
<defs>
<linearGradient id="paint0_linear_88_1983" x1="2.49155e-06" y1="57" x2="114" y2="57" gradientUnits="userSpaceOnUse">
<stop stop-color="#215A9E"/>
<stop offset="1" stop-color="#20BAA7"/>
</linearGradient>
<linearGradient id="paint1_linear_88_1983" x1="75.3667" y1="0" x2="75.3667" y2="145.667" gradientUnits="userSpaceOnUse">
<stop stop-color="white"/>
<stop offset="1" stop-color="#D9D9D9" stop-opacity="0"/>
</linearGradient>
<linearGradient id="paint2_linear_88_1983" x1="75.3667" y1="0" x2="75.3667" y2="145.667" gradientUnits="userSpaceOnUse">
<stop stop-color="white"/>
<stop offset="1" stop-color="#D9D9D9" stop-opacity="0"/>
</linearGradient>
<clipPath id="clip0_88_1983">
<rect width="114" height="114" rx="57" transform="matrix(4.37114e-08 1 1 -4.37114e-08 8 8)" fill="white"/>
</clipPath>
</defs>
</svg>
