<svg width="116" height="107" viewBox="0 0 116 107" fill="none" xmlns="http://www.w3.org/2000/svg">
<g clip-path="url(#clip0_17_170)">
<path d="M49.3831 18.9407C49.7821 18.7264 50.2272 18.4201 50.7029 17.9914C51.1786 17.5626 51.6697 17.0727 52.1454 16.5214C52.6365 15.9702 53.1122 15.373 53.5726 14.7299C54.0483 14.1021 54.478 13.459 54.8616 12.8313C55.2453 12.2035 55.5983 11.591 55.8745 11.0091C56.1661 10.4273 56.3655 9.90667 56.519 9.46262C56.8873 8.20704 57.271 6.98208 57.6853 5.77244C58.0996 4.56279 58.5907 3.36846 59.1432 2.15881C59.2506 1.92913 59.358 1.74539 59.4501 1.60758C59.5575 1.46977 59.6649 1.36259 59.757 1.28603C59.8491 1.20947 59.9872 1.14822 60.1253 1.08697C60.2634 1.04104 60.4322 0.97979 60.6164 0.903231C60.9847 0.780735 61.3683 0.704175 61.7827 0.658239C62.197 0.612303 62.5653 0.612303 62.8876 0.673551C63.2252 0.719487 63.4861 0.811359 63.7163 0.949166C63.9311 1.07166 64.0385 1.24009 64.0385 1.42384C64.0385 1.60758 64.0232 1.77601 63.9925 1.89851C63.9618 2.021 63.9158 2.22006 63.8237 2.46505C63.7316 2.71004 63.6088 3.06222 63.44 3.50626C63.2712 3.95031 63.0257 4.59341 62.7188 5.40495C62.4886 6.01743 62.2277 6.84427 61.9054 7.88549C61.5985 8.9267 61.2609 10.0598 60.9079 11.3001C60.555 12.5403 60.202 13.7806 59.8491 15.0668C59.4961 16.3377 59.1585 17.5167 58.8516 18.5732C58.8209 18.6804 58.8056 18.757 58.8056 18.8335C58.8056 18.9713 58.8516 19.0479 58.9437 19.0479C58.9897 19.0479 59.0664 19.0173 59.1585 18.9713C60.5243 17.9914 61.7827 16.8736 62.9183 15.6027C64.0539 14.3318 65.0207 13.015 65.8033 11.6829C66.4632 10.5345 66.9236 9.41668 67.1998 8.32953C67.4607 7.24238 67.5988 6.26242 67.5988 5.40495C67.5988 4.86903 67.5067 4.48623 67.3379 4.25655C67.1691 4.02687 66.9696 3.84313 66.7548 3.70532C66.5399 3.56751 66.3404 3.41439 66.1716 3.26127C66.0028 3.10815 65.9107 2.83254 65.9107 2.43443C65.9107 2.28131 65.9875 2.09756 66.1563 1.89851C66.3251 1.69945 66.632 1.43915 67.077 1.13291C67.6295 0.734799 68.0438 0.443872 68.32 0.27544C68.5963 0.107008 68.8265 0.0151367 69.0413 0.0151367C69.3175 0.0151367 69.6091 0.107009 69.8853 0.306064C70.1769 0.489808 70.4378 0.765423 70.6833 1.1176C70.9289 1.46977 71.1283 1.8832 71.2818 2.37318C71.4353 2.86316 71.512 3.41439 71.512 3.99625C71.512 4.74653 71.4199 5.48151 71.2204 6.23179C71.0363 6.98208 70.7754 7.73237 70.4378 8.46734C70.1155 9.21763 69.7165 9.93729 69.2868 10.657C68.8418 11.3766 68.3661 12.0657 67.8597 12.7394C66.7241 14.24 65.4197 15.664 63.9158 17.0114C62.4119 18.3589 60.8312 19.6145 59.1892 20.7628C58.9437 20.9313 58.6521 21.161 58.2991 21.4213C57.9462 21.6816 57.5932 21.9266 57.2403 22.1715C56.8873 22.4012 56.5497 22.6003 56.2428 22.7687C55.9359 22.9371 55.675 23.0137 55.4908 23.0137C55.3374 23.0137 55.1532 22.9525 54.9537 22.8146C54.7542 22.6922 54.6161 22.5237 54.524 22.34C54.7082 21.9419 54.877 21.5438 54.9998 21.1303C55.1225 20.7169 55.2299 20.3035 55.3374 19.8901C55.4908 19.2776 55.6136 18.6651 55.6903 18.0373C55.7671 17.4095 55.8131 16.797 55.8131 16.1846C55.8131 16.0008 55.8131 15.8171 55.7978 15.6333C55.7824 15.4649 55.7824 15.2812 55.7517 15.0821C54.7542 16.1233 53.7414 17.1492 52.6979 18.1751C51.6543 19.1857 50.5187 20.1197 49.2757 20.9772C48.754 21.3294 48.2169 21.6663 47.6491 21.9878C47.0813 22.3094 46.4828 22.6003 45.8689 22.8606C45.7615 22.9065 45.6541 22.9371 45.5313 22.9371C45.3472 22.9371 45.117 22.8606 44.8714 22.7075C44.6259 22.5543 44.5031 22.4012 44.5031 22.2634C44.5031 22.1715 44.5492 22.0491 44.6566 21.8959C44.9021 21.4978 45.1016 21.0997 45.2704 20.7016C45.4392 20.3035 45.5927 19.8748 45.7308 19.4307C46.007 18.4661 46.2526 17.4708 46.4828 16.4908C46.7129 15.4955 46.9278 14.5156 47.1273 13.5203C47.3421 12.525 47.5416 11.545 47.7565 10.5498C47.9713 9.55449 48.2169 8.57452 48.4931 7.60987C48.7079 6.8749 48.9381 6.17055 49.1836 5.48151C49.4292 4.79247 49.7054 4.10343 49.997 3.38377C49.6901 3.33783 49.3064 3.26127 48.8767 3.15409C48.4777 3.04691 48.0787 2.95503 47.6644 2.86316C47.2501 2.77129 46.8664 2.72535 46.4828 2.72535C46.314 2.72535 46.1145 2.74067 45.8996 2.7866C45.6848 2.83254 45.4853 2.9091 45.3011 3.00097C45.117 3.09284 44.9635 3.24596 44.8407 3.41439C44.718 3.58282 44.6566 3.8125 44.6566 4.07281C44.6566 4.21061 44.718 4.36373 44.8254 4.53217C44.9328 4.7006 45.1477 4.89965 45.4392 5.14464C45.5467 5.23652 45.5927 5.31308 45.5927 5.40495C45.5927 5.49682 45.5313 5.57338 45.4239 5.63463C45.3165 5.71119 45.1784 5.77244 45.0249 5.81837C44.8714 5.86431 44.718 5.91024 44.5799 5.95618C44.4417 5.9868 44.3497 6.00211 44.2883 6.00211C43.9967 6.00211 43.7512 5.91024 43.5517 5.7265C43.3675 5.54276 43.2141 5.32839 43.0913 5.0834C42.9839 4.83841 42.8918 4.5781 42.8458 4.34842C42.7997 4.10343 42.769 3.935 42.769 3.82782C42.769 3.27658 42.9072 2.81723 43.1987 2.44974C43.4903 2.08225 43.8586 1.79132 44.319 1.59227C44.7794 1.3779 45.2858 1.24009 45.8536 1.14822C46.4214 1.05635 46.9738 1.01041 47.5416 1.01041C47.7718 1.01041 47.9867 1.01041 48.1862 1.01041C48.401 1.01041 48.6158 1.02573 48.846 1.05635C49.6287 1.10229 50.396 1.22478 51.1479 1.40853C51.8999 1.59227 52.5904 1.68414 53.2043 1.68414C53.3884 1.68414 53.5726 1.66883 53.7567 1.6382C53.9255 1.60758 54.0943 1.59227 54.2325 1.59227C54.524 1.59227 54.7542 1.66883 54.9077 1.83726C55.0611 2.00569 55.1532 2.22006 55.1686 2.48036C55.0151 3.04691 54.8463 3.62876 54.6622 4.22593C54.478 4.82309 54.2785 5.42026 54.0483 6.01743C53.3424 8.05392 52.5291 10.0904 51.639 12.1575C50.7489 14.2093 49.8589 16.1233 48.9688 17.8995C48.8614 18.1139 48.7386 18.3436 48.6005 18.6039C48.4624 18.8642 48.3857 19.0479 48.3857 19.1551C48.3857 19.2776 48.4624 19.3388 48.6005 19.3388C48.7079 19.3388 48.8307 19.3082 48.9842 19.2317C49.1376 19.1092 49.2604 19.0326 49.3831 18.9407Z" fill="#215A9E"/>
<path d="M77.896 16.169C77.9113 16.1078 77.942 16.0159 77.9573 15.9087C77.9727 15.8015 77.988 15.6944 77.9727 15.5872C77.9573 15.48 77.9266 15.3728 77.8653 15.2809C77.8039 15.1891 77.6811 15.1125 77.5277 15.0666C77.098 14.9441 76.6529 14.9441 76.2232 15.0972C75.7936 15.2503 75.3792 15.4953 74.9802 15.8475C74.5812 16.1997 74.2129 16.6284 73.8907 17.149C73.553 17.6696 73.2615 18.2361 73.0313 18.8486C72.8625 19.4152 72.8625 19.8898 73.0313 20.2879C73.2001 20.6861 73.5837 20.9617 74.1669 21.1454C74.5352 21.2526 74.9649 21.2985 75.4406 21.2985C75.9317 21.2832 76.4381 21.222 76.9752 21.1148C77.5123 21.0076 78.0648 20.8545 78.6172 20.6707C79.1697 20.487 79.6914 20.2573 80.1825 20.0123C80.3206 19.9664 80.4894 19.8898 80.6889 19.798C80.8884 19.7061 81.0419 19.6755 81.18 19.7061C81.2874 19.7367 81.3334 19.8286 81.3641 19.9664C81.3795 20.1042 81.3795 20.242 81.3334 20.3798C81.2414 20.6554 81.0572 20.9617 80.7503 21.2679C80.4434 21.5742 80.0597 21.8651 79.5994 22.1254C79.139 22.401 78.6172 22.646 78.0494 22.8757C77.4663 23.1054 76.8831 23.2738 76.2693 23.4116C75.6554 23.5341 75.0416 23.6106 74.4278 23.6106C73.8139 23.6106 73.2308 23.5341 72.6937 23.381C71.9724 23.1666 71.3893 22.891 70.9289 22.5694C70.4685 22.2479 70.1309 21.8804 69.9007 21.467C69.6705 21.0689 69.5324 20.6401 69.5017 20.1808C69.471 19.7214 69.5324 19.2774 69.6552 18.8333C69.9314 17.8993 70.4225 17.0112 71.0977 16.1843C71.7883 15.3422 72.5863 14.6378 73.5224 14.0713C74.4585 13.5047 75.4559 13.1066 76.5455 12.877C77.6351 12.6626 78.7093 12.7085 79.7988 13.0301C80.1978 13.1526 80.5201 13.3363 80.7656 13.5813C81.0112 13.8263 81.1953 14.1019 81.3181 14.3928C81.4409 14.6991 81.5176 15.0053 81.5176 15.3116C81.5176 15.6178 81.4869 15.8934 81.4255 16.1231C81.3334 16.4446 81.1186 16.7662 80.7963 17.1184C80.4587 17.4705 80.0751 17.7921 79.6147 18.0983C79.1543 18.4046 78.6632 18.6955 78.1261 18.9558C77.589 19.2161 77.0673 19.4458 76.5455 19.6142C76.0237 19.7827 75.5327 19.9051 75.0723 19.9664C74.6119 20.0276 74.2436 20.0276 73.9674 19.9358C73.952 19.9358 73.906 19.9205 73.8139 19.8898C73.7372 19.8592 73.6298 19.8133 73.5224 19.752C73.2154 19.5683 73.0159 19.3233 72.9392 19.0324C72.8625 18.7414 72.8318 18.5271 72.8625 18.4199C72.8932 18.2974 73.0006 18.2515 73.1541 18.2668C73.5991 18.3433 74.0902 18.3433 74.5966 18.2668C75.1183 18.1902 75.5941 18.0371 76.0391 17.838C76.4841 17.639 76.8831 17.394 77.2207 17.1031C77.5737 16.8121 77.7885 16.5059 77.896 16.169Z" fill="#215A9E"/>
<path d="M98.4134 11.7592C98.5515 11.6061 98.7664 11.5143 99.0426 11.4989C99.3189 11.4836 99.6258 11.5143 99.9327 11.5908C100.255 11.6674 100.562 11.7592 100.884 11.8664C101.206 11.9889 101.483 12.1114 101.713 12.2339C101.928 12.3411 102.127 12.4789 102.281 12.632C102.449 12.7852 102.465 12.9842 102.327 13.2445C102.265 13.367 102.189 13.4742 102.112 13.5354C102.035 13.612 101.943 13.6886 101.836 13.7804C101.452 14.102 100.869 14.5767 100.086 15.2044C99.3035 15.8169 98.4288 16.5213 97.462 17.3022C96.4952 18.0831 95.4824 18.8946 94.4235 19.7521C93.3646 20.6096 92.3671 21.4364 91.4464 22.2479C90.3875 23.1667 89.4821 23.9782 88.7301 24.6979C87.9782 25.4175 87.5025 25.9534 87.3183 26.3056C87.1649 26.5965 87.1955 26.8109 87.4411 26.9181C87.5792 26.9947 87.7787 27.0253 88.0549 27.01C88.3311 26.9947 88.6381 26.9487 88.9757 26.8875C89.3133 26.8262 89.6662 26.7497 90.0499 26.6578C90.4182 26.5659 90.7712 26.4894 91.0781 26.4128C91.4003 26.3362 91.6766 26.275 91.9068 26.2444C92.1369 26.2137 92.2904 26.2137 92.3671 26.2597C92.582 26.3669 92.628 26.5506 92.4899 26.7956C92.229 27.2856 91.7686 27.6837 91.1088 28.0052C90.4489 28.3115 89.7583 28.5412 89.0064 28.6943C88.2544 28.8474 87.5332 28.924 86.8426 28.9393C86.152 28.9546 85.6303 28.924 85.2773 28.8321C84.9244 28.7555 84.5867 28.6483 84.2645 28.4799C83.6813 28.1737 83.3744 27.8062 83.3437 27.3775C83.313 26.9487 83.4358 26.474 83.712 25.9534C84.0036 25.4022 84.3872 24.8357 84.863 24.2538C85.3387 23.672 85.8605 23.0901 86.4283 22.5082C86.9961 21.9264 87.5945 21.3445 88.2237 20.778C88.8529 20.2115 89.4668 19.6602 90.0806 19.1396C91.9835 17.5165 93.6562 16.0925 95.0834 14.8982C96.5566 13.6732 97.6615 12.632 98.4134 11.7592Z" fill="#215A9E"/>
<path d="M112.455 22.2024C112.639 22.0952 112.869 22.0646 113.13 22.1412C113.406 22.2177 113.683 22.3249 113.959 22.478C114.251 22.6311 114.527 22.8149 114.788 23.0293C115.064 23.2283 115.294 23.4274 115.478 23.6111C115.647 23.7795 115.8 23.9633 115.923 24.147C116.046 24.3308 116 24.5298 115.785 24.7442C115.693 24.8361 115.586 24.9126 115.494 24.9739C115.401 25.0198 115.279 25.0811 115.156 25.127C114.696 25.3261 113.99 25.617 113.069 25.9845C112.148 26.352 111.105 26.7654 109.954 27.24C108.803 27.6994 107.59 28.1894 106.332 28.71C105.074 29.2306 103.877 29.7359 102.772 30.2412C101.498 30.823 100.393 31.3437 99.457 31.8183C98.5209 32.293 97.9224 32.6758 97.6462 32.9514C97.416 33.1811 97.3853 33.3955 97.5848 33.5792C97.6922 33.6864 97.8917 33.7783 98.1526 33.8395C98.4135 33.9007 98.7204 33.962 99.0734 33.9926C99.411 34.0232 99.7793 34.0539 100.163 34.0692C100.547 34.0845 100.9 34.1151 101.222 34.1304C101.544 34.1457 101.82 34.1764 102.066 34.207C102.296 34.2376 102.449 34.2835 102.511 34.3448C102.68 34.5132 102.68 34.697 102.48 34.896C102.097 35.2941 101.529 35.5391 100.823 35.6616C100.102 35.7688 99.3649 35.7841 98.613 35.7229C97.861 35.6463 97.1398 35.5238 96.4646 35.3401C95.7893 35.1563 95.2983 34.9726 94.9913 34.7888C94.6691 34.6204 94.3775 34.406 94.1166 34.1457C93.6409 33.6864 93.4568 33.2423 93.5488 32.8289C93.6409 32.4155 93.9018 31.9868 94.3161 31.5733C94.7612 31.1293 95.2829 30.7005 95.9121 30.2718C96.5413 29.8431 97.2012 29.445 97.9224 29.0469C98.6437 28.6487 99.3803 28.2813 100.148 27.8985C100.915 27.531 101.667 27.1788 102.403 26.8572C104.69 25.8467 106.7 24.9739 108.419 24.2389C110.122 23.5039 111.473 22.8149 112.455 22.2024Z" fill="#215A9E"/>
<path d="M15.5761 74.8599C15.5454 74.7987 15.5454 74.7068 15.5761 74.615C15.5915 74.5078 15.7449 74.324 16.0058 74.0637C16.1286 73.9565 16.236 73.8494 16.3434 73.7575C16.4508 73.6656 16.5429 73.5891 16.6657 73.5431C16.7271 73.5125 16.8191 73.5278 16.9419 73.5891C17.0647 73.6503 17.1874 73.7269 17.3409 73.8187C17.4944 73.9106 17.6785 74.0178 17.878 74.125C18.0775 74.2322 18.323 74.324 18.5993 74.4006C19.075 74.5384 19.5354 74.5996 20.0111 74.569C20.4715 74.5384 20.9012 74.4159 21.2848 74.2015C21.6685 73.9872 21.9754 73.6809 22.2056 73.2981C22.4358 72.9153 22.5432 72.4253 22.5432 71.8588C22.5125 70.8329 22.2669 69.9601 21.7912 69.2405C21.3155 68.5208 20.717 67.9236 19.9958 67.449C19.2591 66.9743 18.4458 66.6221 17.5404 66.3924C16.635 66.1628 15.7296 66.0096 14.8242 65.9484C13.9188 65.8871 13.0594 65.9178 12.2307 66.0249C11.4174 66.1321 10.7268 66.3006 10.1897 66.5302C9.51447 66.8059 8.85459 67.1887 8.19472 67.6939C7.55019 68.1839 7.01308 68.7811 6.58339 69.4701C6.16905 70.1592 5.90817 70.9401 5.83144 71.8282C5.73937 72.7163 5.92352 73.6809 6.36855 74.7681C6.62943 75.3959 6.93635 75.9318 7.28931 76.4065C7.64226 76.8658 8.01057 77.2639 8.37887 77.5855C8.74717 77.907 9.11548 78.1826 9.46843 78.397C9.82139 78.6114 10.113 78.7645 10.3738 78.8717C10.8956 79.0707 11.3099 79.2392 11.6476 79.3923C11.9852 79.5301 12.1847 79.6985 12.2614 79.867C12.3535 80.0813 12.3228 80.2804 12.1693 80.4641C12.0159 80.6632 11.9084 80.7704 11.801 80.8163C11.7703 80.8316 11.6015 80.8163 11.2946 80.7704C10.9877 80.7244 10.7115 80.6632 10.4352 80.5866C9.72931 80.3876 9.03875 80.1119 8.36352 79.7445C7.6883 79.377 7.02843 78.9176 6.41459 78.3664C5.7854 77.8152 5.21761 77.1874 4.69584 76.4677C4.17408 75.748 3.72905 74.9518 3.36075 74.079C2.7776 72.6703 2.50137 71.3535 2.51672 70.1132C2.54741 68.8883 2.79295 67.7705 3.25332 66.7752C3.7137 65.78 4.34289 64.9378 5.12553 64.2181C5.90817 63.4985 6.78289 62.9472 7.71899 62.5491C8.70113 62.151 9.74466 61.906 10.8342 61.8448C11.9238 61.7835 13.044 61.8448 14.1643 62.0591C15.2845 62.2735 16.3741 62.6257 17.433 63.1157C18.5072 63.6057 19.5047 64.2028 20.4254 64.8919C21.3462 65.5809 22.1902 66.3771 22.9115 67.2499C23.6327 68.1227 24.2159 69.072 24.6456 70.0979C24.9065 70.741 25.1059 71.4301 25.2287 72.165C25.3515 72.9 25.3822 73.6044 25.3054 74.2934C25.2287 74.9671 25.0292 75.5949 24.7223 76.1461C24.4 76.6974 23.9243 77.1108 23.2798 77.3711C22.6813 77.6161 21.9907 77.7233 21.1927 77.6773C20.3947 77.6467 19.6121 77.4936 18.8601 77.2639C18.1082 77.0189 17.4176 76.6974 16.8191 76.284C16.19 75.8399 15.791 75.3806 15.5761 74.8599Z" fill="#20BAA7"/>
<path d="M23.9089 80.8315C24.0317 80.954 24.0931 81.1224 24.1084 81.3215C24.1237 81.5358 24.1084 81.7502 24.047 81.9646C24.001 82.1789 23.9089 82.3933 23.8015 82.5924C23.6787 82.7914 23.5713 82.9445 23.4639 83.067C23.3718 83.1589 23.2644 83.2355 23.1416 83.2661C23.0188 83.2967 22.9114 83.2814 22.7886 83.2048C22.2669 82.8986 21.6377 82.7455 20.9011 82.7302C20.1645 82.7302 19.4279 82.8067 18.6913 82.9905C17.9393 83.1742 17.2488 83.4192 16.5889 83.7408C15.929 84.0623 15.4226 84.3992 15.0696 84.7666C14.7474 85.0882 14.6093 85.3638 14.64 85.6241C14.6706 85.8691 14.8088 86.1294 15.0543 86.3744C15.484 86.8031 16.0518 87.0788 16.773 87.1859C17.4943 87.2931 18.2156 87.2625 18.9522 87.0941C18.8294 86.6041 18.8447 86.1141 18.9675 85.6241C19.1056 85.1341 19.3819 84.6748 19.8115 84.246C20.0264 84.0317 20.3026 83.8632 20.6249 83.7714C21.1159 83.6183 21.653 83.6029 22.2055 83.7254C22.7733 83.8326 23.2183 84.047 23.5253 84.3685C23.8475 84.6901 24.001 85.0882 24.001 85.5629C24.001 86.0375 23.6941 86.5582 23.0956 87.1553C22.9575 87.2931 22.804 87.4156 22.6352 87.5534C22.4664 87.6759 22.2976 87.8137 22.1288 87.9362C22.3283 88.1047 22.5124 88.2578 22.6966 88.3956C22.8807 88.5334 23.0649 88.6406 23.2337 88.7478C23.4946 88.8856 23.7248 88.9928 23.9396 89.0846C24.1544 89.1765 24.3539 89.2531 24.5381 89.3143C24.8757 89.4062 25.0905 89.498 25.1826 89.5899C25.2747 89.6818 25.2593 89.8043 25.1059 89.9574C24.891 90.1718 24.6455 90.2943 24.3539 90.3555C24.0624 90.4168 23.7554 90.4168 23.4178 90.3861C23.1416 90.3555 22.8807 90.3096 22.6198 90.233C22.359 90.1565 22.0981 90.0646 21.8525 89.9574C21.3768 89.743 20.9471 89.5134 20.5481 89.2531C20.1645 88.9928 19.8576 88.7478 19.6581 88.5487C18.9829 88.7018 18.2616 88.809 17.525 88.8396C16.773 88.8703 16.0364 88.8396 15.3152 88.7171C14.5939 88.61 13.9033 88.4109 13.2588 88.1353C12.6143 87.8597 12.0465 87.4769 11.5708 87.0022C11.2792 86.7113 11.0797 86.3744 10.9876 86.0222C10.8955 85.6701 10.8649 85.3026 10.8955 84.9351C10.9262 84.5676 11.0337 84.2154 11.1871 83.8939C11.3406 83.557 11.5554 83.2814 11.801 83.0364C12.3227 82.5158 12.9672 82.0411 13.7345 81.5971C14.5018 81.153 15.3305 80.7855 16.2359 80.4946C17.1413 80.2037 18.0621 80.0199 19.0442 79.9281C20.011 79.8515 20.9625 79.8974 21.8986 80.0965C22.2976 80.1884 22.6966 80.2956 23.0802 80.4487C23.4792 80.5252 23.7401 80.6784 23.9089 80.8315ZM21.4842 85.0423C21.5149 85.0116 21.5456 84.9657 21.5917 84.9045C21.6377 84.8432 21.607 84.7513 21.5149 84.6595C21.5303 84.6901 21.5303 84.7513 21.5149 84.8126C21.5149 84.8585 21.4996 84.9198 21.4842 84.9657C21.4689 85.027 21.4229 85.0729 21.3615 85.1341L21.3001 85.1954C21.3308 85.1648 21.3768 85.1341 21.4075 85.1188C21.4229 85.0882 21.4536 85.0729 21.4842 85.0423Z" fill="#20BAA7"/>
<path d="M40.8049 99.1447C41.3573 98.9303 41.7103 98.8537 41.8944 98.9303C42.1246 99.0222 42.1707 99.2059 42.0632 99.4509C41.9558 99.6959 41.741 99.9562 41.4034 100.247C41.0657 100.538 40.7435 100.752 40.4366 100.875C39.1168 101.503 37.9045 101.886 36.8303 102.054C35.756 102.222 34.8199 102.131 33.9913 101.778C33.5616 101.595 33.2547 101.288 33.0705 100.844C32.8864 100.416 32.9477 99.8337 33.2547 99.1294C33.4695 98.6241 33.8071 98.1494 34.2368 97.7207C34.6818 97.2919 35.1422 96.9091 35.6179 96.5723C36.109 96.2354 36.5694 95.9292 37.0144 95.6842C37.4594 95.4239 37.7817 95.2248 37.9966 95.0717C38.1347 94.9798 38.2114 94.9033 38.2267 94.8573C38.2421 94.8114 38.2267 94.7808 38.1807 94.7501C37.9352 94.643 37.5822 94.6123 37.1065 94.6583C36.6308 94.7042 36.0937 94.8267 35.4798 95.0564C34.866 95.2707 34.2215 95.577 33.5309 95.9751C32.8557 96.3732 32.1804 96.8785 31.5513 97.491C31.1676 97.8891 30.784 98.2413 30.385 98.5475C29.986 98.8537 29.6023 99.0528 29.234 99.16C28.789 99.3131 28.4053 99.3131 28.0677 99.1753C27.8375 99.0834 27.6687 98.9609 27.5613 98.8078C27.4539 98.6547 27.3618 98.5016 27.3004 98.3331C27.239 98.18 27.2084 98.0269 27.2084 97.8891C27.2084 97.7513 27.2237 97.6594 27.239 97.6135C27.4846 97.0163 27.8529 96.4651 28.344 95.9292C28.835 95.3932 29.3261 94.9186 29.8479 94.4898C30.3696 94.0611 30.876 93.6783 31.3364 93.3568C31.8121 93.0352 32.1498 92.7749 32.3492 92.6065C32.4567 92.5299 32.5334 92.4533 32.5487 92.4074C32.5641 92.3615 32.5487 92.3309 32.5027 92.3002C32.2725 92.2084 31.9349 92.1777 31.4592 92.2237C30.9835 92.2696 30.4464 92.3921 29.8325 92.6218C29.2187 92.8362 28.5741 93.1424 27.8836 93.5405C27.2084 93.9386 26.5331 94.4439 25.904 95.0564C25.5663 95.3626 25.2441 95.6536 24.9678 95.9139C24.6763 96.1742 24.4 96.3885 24.1392 96.557C23.8629 96.7254 23.6021 96.8326 23.3565 96.8938C23.111 96.9551 22.8655 96.9244 22.6199 96.8173C22.2823 96.6794 21.9754 96.3732 21.6992 95.9139C21.5917 95.7914 21.6378 95.5617 21.8219 95.2248C22.0061 94.8726 22.2823 94.4745 22.6506 93.9999C23.0189 93.5252 23.4486 93.0046 23.9243 92.438C24.4154 91.8715 24.9065 91.305 25.4129 90.7078C25.9193 90.1259 26.4104 89.5594 26.8707 89.0082C27.3311 88.4569 27.7301 87.9669 28.0524 87.5229C28.1752 87.3545 28.39 87.2473 28.6509 87.2167C28.9271 87.186 29.2187 87.186 29.5563 87.232C29.8786 87.2779 30.2162 87.3545 30.5384 87.4463C30.8607 87.5382 31.1369 87.6301 31.3671 87.722C31.4899 87.7832 31.6126 87.8291 31.7201 87.8904C31.8275 87.9516 31.9196 88.0129 31.9656 88.0894C32.1191 88.2579 32.1498 88.4569 32.0423 88.6866C31.9963 88.7938 31.9349 88.901 31.8582 88.9928C31.7815 89.0847 31.7047 89.1613 31.628 89.2532C31.3364 89.5288 31.0142 89.8197 30.6612 90.1259C30.3082 90.4322 29.8786 90.7997 29.3721 91.1978C29.9399 90.9221 30.5538 90.6772 31.183 90.4781C31.8121 90.2791 32.4413 90.1566 33.0398 90.0647C33.6537 89.9881 34.2368 89.9728 34.8046 90.0187C35.3724 90.0647 35.8788 90.1872 36.3238 90.3709C36.6922 90.524 36.9684 90.6925 37.1372 90.8609C37.306 91.0293 37.4134 91.2131 37.4441 91.3968C37.4748 91.5806 37.4594 91.7643 37.3827 91.9327C37.306 92.1012 37.1832 92.2849 37.0298 92.4687C36.861 92.6524 36.6768 92.8362 36.4773 93.0046C37.4901 92.683 38.4723 92.484 39.4237 92.4074C40.3752 92.3309 41.2346 92.4534 41.9712 92.7749C42.5083 93.0046 42.8612 93.2496 43.0147 93.5252C43.1681 93.7855 43.1835 94.0611 43.0607 94.352C42.984 94.5205 42.8766 94.7042 42.7231 94.8573C42.5696 95.0258 42.4008 95.1942 42.186 95.3626C41.833 95.6689 41.4187 95.9751 40.943 96.2813C40.4673 96.6029 39.9915 96.9091 39.5005 97.2001C39.0094 97.5063 38.549 97.7972 38.1193 98.1035C37.6896 98.3944 37.352 98.6853 37.1065 98.9609C36.9377 99.114 36.8303 99.2672 36.7689 99.405C36.6768 99.65 36.7535 99.8184 36.9684 99.9103C37.1218 99.9715 37.352 100.002 37.6283 99.9868C37.9045 99.9715 38.2267 99.9103 38.5644 99.8184C38.902 99.7265 39.2703 99.6193 39.6386 99.4815C40.0989 99.4509 40.4519 99.2978 40.8049 99.1447Z" fill="#20BAA7"/>
<path d="M61.0462 101.242C61.5066 100.875 61.8288 100.691 62.013 100.706C62.2585 100.737 62.3659 100.875 62.3353 101.15C62.3046 101.411 62.1818 101.732 61.9363 102.1C61.6907 102.482 61.4605 102.773 61.1997 103.003C60.1254 103.998 59.0973 104.733 58.1305 105.208C57.1637 105.683 56.2276 105.882 55.3529 105.805C54.8925 105.759 54.4935 105.56 54.1866 105.193C53.8796 104.825 53.7722 104.274 53.8489 103.508C53.9103 102.957 54.0791 102.406 54.3707 101.87C54.6623 101.334 54.9845 100.829 55.3529 100.354C55.7212 99.8795 56.0588 99.466 56.4117 99.0832C56.7493 98.7004 57.0102 98.4095 57.1637 98.1951C57.2711 98.0726 57.3171 97.9808 57.3171 97.9195C57.3171 97.8736 57.3018 97.843 57.2404 97.8277C56.9795 97.797 56.6266 97.8889 56.1969 98.0573C55.7518 98.2411 55.2761 98.532 54.7544 98.9301C54.2326 99.3282 53.7108 99.8182 53.1737 100.4C52.6366 100.982 52.1609 101.671 51.7466 102.437C51.501 102.942 51.2401 103.386 50.9639 103.799C50.6723 104.213 50.3808 104.519 50.0585 104.733C49.6749 105.009 49.3065 105.131 48.9536 105.101C48.7081 105.07 48.5086 105.009 48.3551 104.902C48.2016 104.795 48.0635 104.672 47.9561 104.534C47.8487 104.396 47.772 104.274 47.7259 104.151C47.6799 104.029 47.6645 103.937 47.6799 103.891C47.7413 103.248 47.9254 102.605 48.2323 101.962C48.5392 101.319 48.8615 100.706 49.2452 100.14C49.6135 99.5732 49.9818 99.0679 50.3194 98.6086C50.6723 98.1492 50.9179 97.8123 51.056 97.5827C51.1327 97.4755 51.1788 97.3836 51.1788 97.3377C51.1788 97.2917 51.1634 97.2611 51.102 97.2458C50.8565 97.2152 50.5189 97.307 50.0892 97.4908C49.6442 97.6745 49.1684 97.9655 48.6467 98.3636C48.1249 98.7617 47.6031 99.2517 47.066 99.8335C46.5289 100.415 46.0532 101.104 45.6389 101.87C45.4087 102.268 45.1938 102.636 45.0097 102.972C44.8255 103.309 44.626 103.6 44.4112 103.845C44.1963 104.09 43.9815 104.274 43.7667 104.396C43.5518 104.519 43.3063 104.58 43.0454 104.55C42.6771 104.519 42.2935 104.32 41.8945 103.968C41.7563 103.891 41.741 103.646 41.8024 103.263C41.8791 102.881 42.0172 102.406 42.2167 101.839C42.4162 101.273 42.6771 100.645 42.9687 99.9713C43.2602 99.2823 43.5672 98.5932 43.8741 97.8736C44.181 97.1692 44.4726 96.4802 44.7488 95.8218C45.025 95.1634 45.2552 94.5662 45.424 94.0456C45.5008 93.8465 45.6542 93.6781 45.8997 93.5709C46.1453 93.4484 46.4369 93.3719 46.7591 93.3106C47.0814 93.2494 47.419 93.2187 47.772 93.2187C48.1096 93.2034 48.4011 93.2187 48.6467 93.2341C48.7848 93.2494 48.9076 93.2647 49.0303 93.28C49.1531 93.2953 49.2452 93.3412 49.3372 93.4025C49.5367 93.5097 49.6288 93.6934 49.5981 93.9537C49.5828 94.0762 49.5521 94.1834 49.506 94.3059C49.46 94.4131 49.414 94.5203 49.3679 94.6121C49.1838 94.9643 48.9536 95.3318 48.7081 95.7299C48.4625 96.128 48.1556 96.6027 47.8026 97.1386C48.263 96.6946 48.7694 96.2811 49.3065 95.9137C49.8437 95.5462 50.3961 95.2246 50.9639 94.9643C51.5164 94.704 52.0842 94.505 52.6366 94.3825C53.1891 94.26 53.7108 94.214 54.2019 94.26C54.6009 94.3059 54.9078 94.3671 55.1227 94.4743C55.3375 94.5815 55.491 94.7193 55.583 94.8878C55.6751 95.0562 55.7058 95.2246 55.6905 95.4237C55.6751 95.6074 55.6137 95.8218 55.5063 96.0515C55.3989 96.2811 55.2761 96.5108 55.138 96.7405C55.9974 96.128 56.8874 95.638 57.7775 95.2859C58.6676 94.9337 59.5116 94.7959 60.3096 94.8724C60.8927 94.9337 61.3071 95.0562 61.5219 95.2706C61.7521 95.4696 61.8442 95.7299 61.8135 96.0515C61.7981 96.2352 61.7368 96.4343 61.6447 96.6333C61.5526 96.8324 61.4298 97.0467 61.2917 97.2764C61.0462 97.6745 60.7393 98.0879 60.3863 98.532C60.0334 98.976 59.6651 99.4201 59.2814 99.8488C58.9131 100.278 58.5602 100.706 58.2379 101.12C57.9156 101.533 57.6854 101.901 57.532 102.237C57.4246 102.437 57.3632 102.62 57.3478 102.773C57.3325 103.034 57.4552 103.172 57.7008 103.202C57.8696 103.217 58.0844 103.172 58.3607 103.064C58.6215 102.957 58.8978 102.819 59.2047 102.62C59.4963 102.437 59.8185 102.222 60.1254 101.977C60.463 101.732 60.77 101.487 61.0462 101.242Z" fill="#20BAA7"/>
<path d="M64.2075 107C63.1486 107 62.2586 106.739 61.5526 106.204C59.619 104.764 60.6012 102.268 61.3838 101.135C61.6294 100.783 62.1051 100.707 62.458 100.952C62.811 101.197 62.8877 101.671 62.6422 102.023C62.6269 102.054 61.2457 104.075 62.4734 104.979C64.4377 106.449 69.3023 104.611 76.9293 99.5122C77.2822 99.2825 77.758 99.3744 77.9881 99.7266C78.2183 100.079 78.1263 100.553 77.7733 100.783C71.5122 104.994 67.1386 107 64.2075 107Z" fill="#20BAA7"/>
<path d="M110.813 55.7508C110.46 55.7508 110.138 55.4905 110.061 55.1383C109.018 49.8557 106.931 47.9264 102.925 45.8133C98.4443 43.4553 96.3572 41.1585 96.5567 38.8004C96.8483 35.4012 102.005 33.6709 102.219 33.5944C102.618 33.4566 103.063 33.6863 103.186 34.0844C103.324 34.4825 103.094 34.9112 102.695 35.049C101.467 35.4624 98.2448 36.9477 98.076 38.9229C97.9379 40.5613 99.8561 42.4753 103.631 44.4659C109.14 47.3751 110.675 50.361 111.565 54.8474C111.642 55.2608 111.381 55.6589 110.967 55.7508C110.921 55.7508 110.875 55.7508 110.813 55.7508Z" fill="#215A9E"/>
<path fill-rule="evenodd" clip-rule="evenodd" d="M37.3059 9.50851C35.7713 8.65104 28.5587 13.7959 28.5587 13.7959C28.5587 13.7959 29.4027 12.3106 28.0983 11.8053C26.7939 11.3 18.7373 16.0161 10.1436 24.8205C1.54985 33.6249 -0.230283 46.9769 0.0152524 51.4633C0.260788 55.9497 5.8774 57.9862 9.22282 57.7412C12.5682 57.4962 22.8807 49.779 22.8807 49.779C22.8807 49.779 36.1396 35.9063 32.2417 35.8451C28.3439 35.7838 21.208 40.4693 21.0392 39.3668C20.8704 38.2644 25.1519 31.5884 27.7914 28.8016C30.4309 26.0148 35.1882 21.0844 36.2317 19.6144C37.2752 18.1445 36.4465 16.9807 35.4644 16.7051C34.4823 16.4295 33.1625 17.0114 33.1625 17.0114C33.1625 17.0114 36.9683 13.5815 37.9197 12.5709C38.8865 11.5603 38.8405 10.366 37.3059 9.50851Z" fill="#215A9E"/>
<path d="M28.2518 14.1328C14.8855 25.2034 12.1846 33.0431 12.1846 33.0431" stroke="white" stroke-width="0.858615" stroke-miterlimit="10" stroke-linecap="round"/>
<path d="M18.0469 34.8499C17.9856 34.8499 17.9242 34.8346 17.8781 34.7886C17.74 34.6968 17.7093 34.4977 17.8014 34.3599C26.0115 22.6616 32.687 17.3177 32.7484 17.2564C32.8865 17.1493 33.0706 17.1799 33.178 17.3024C33.2855 17.4402 33.2548 17.6239 33.132 17.7311C33.0706 17.7771 26.4719 23.0903 18.3078 34.6968C18.2464 34.804 18.1544 34.8499 18.0469 34.8499Z" fill="white"/>
<path fill-rule="evenodd" clip-rule="evenodd" d="M85.6457 41.6637C84.372 37.5141 82.0394 33.3339 72.4482 33.3952C62.857 33.4564 56.1815 45.6448 56.1815 45.6448C56.1815 45.6448 49.5521 37.4376 44.979 35.5389C40.8816 33.5789 34.2368 33.0736 28.4054 37.6825C19.6582 43.6695 21.7452 53.9745 22.8808 57.7412C24.0164 61.508 33.3007 70.6033 36.8456 73.2063C40.3906 75.8093 58.7903 87.9058 58.7903 87.9058C58.7903 87.9058 77.3743 69.9602 82.4231 62.3348C87.4719 54.7095 86.9194 45.8132 85.6457 41.6637Z" fill="#FF8A8A"/>
<g opacity="0.5">
<path fill-rule="evenodd" clip-rule="evenodd" d="M44.6719 61.8756C41.971 55.9346 41.9097 47.6508 40.9889 45.798C40.0681 43.9453 38.0578 42.9041 35.6178 42.8888C33.1778 42.8735 32.2264 43.1491 30.5537 44.8793C27.8835 47.1761 29.5869 52.8875 30.4002 55.7508C31.2135 58.6142 38.3341 66.6989 40.2216 68.766C42.1092 70.8331 51.5776 76.8813 51.5776 76.8813C51.5776 76.8813 47.3728 67.8166 44.6719 61.8756Z" fill="white"/>
</g>
<path fill-rule="evenodd" clip-rule="evenodd" d="M107.744 55.4447C106.424 54.3881 104.506 52.6885 98.8433 53.301C93.1807 53.9135 79.2005 66.163 79.2005 66.163C79.2005 66.163 75.5635 69.4092 74.7502 70.4504C73.9368 71.4916 73.323 73.329 74.4433 74.4315C76.0085 75.2277 79.2465 74.1253 81.6559 72.5941C84.0652 71.0629 89.9427 66.6224 89.9427 66.6224C89.9427 66.6224 85.2468 74.9062 83.037 77.647C80.8272 80.3879 70.7909 90.4019 70.2999 91.1215C69.8088 91.8412 69.1489 93.9389 70.9137 94.7964C71.8958 95.2864 73.5225 94.6433 73.5225 94.6433C73.5225 94.6433 71.0825 96.8635 71.0672 98.165C71.0518 99.4666 72.6478 99.5431 74.9036 99.0838C78.3411 97.2616 80.3821 94.4442 79.9678 95.7151C79.5535 96.986 81.1034 97.7516 82.1162 97.3994C83.1291 97.0473 95.191 89.6669 101.759 82.8531C106.562 78.3514 109.954 71.7978 111.274 66.3162C112.593 60.8345 109.079 56.5012 107.744 55.4447Z" fill="#20BAA7"/>
<path d="M94.1473 73.6201C94.1473 73.6201 80.4433 90.3561 73.998 94.5516" stroke="white" stroke-width="0.858615" stroke-miterlimit="10" stroke-linecap="round"/>
<path d="M99.8715 75.2432C99.8715 75.2432 86.8581 90.1417 80.5203 94.9344" stroke="white" stroke-width="0.858615" stroke-miterlimit="10" stroke-linecap="round"/>
</g>
<defs>
<clipPath id="clip0_17_170">
<rect width="116" height="107" fill="white"/>
</clipPath>
</defs>
</svg>
