<svg width="48" height="48" viewBox="0 0 48 48" fill="none" xmlns="http://www.w3.org/2000/svg">
    <path d="M24 44a19.939 19.939 0 0 0 14.142-5.858A19.939 19.939 0 0 0 44 24a19.939 19.939 0 0 0-5.858-14.142A19.94 19.94 0 0 0 24 4 19.94 19.94 0 0 0 9.858 9.858 19.94 19.94 0 0 0 4 24a19.94 19.94 0 0 0 5.858 14.142A19.94 19.94 0 0 0 24 44z" stroke="#F67A7A" stroke-width="4" stroke-linejoin="round"/>
    <path fill-rule="evenodd" clip-rule="evenodd" d="M24 37a2.5 2.5 0 1 0 0-5 2.5 2.5 0 0 0 0 5z" fill="#F67A7A"/>
    <path d="M24 12v16" stroke="#F67A7A" stroke-width="4" stroke-linecap="round" stroke-linejoin="round"/>
</svg>
