<svg width="24" height="24" viewBox="0 0 24 24" fill="none" xmlns="http://www.w3.org/2000/svg">
    <path d="M7 21c-.55 0-1.02-.196-1.412-.587A1.93 1.93 0 0 1 5 19V6a.965.965 0 0 1-.712-.288A.972.972 0 0 1 4 5c0-.283.095-.52.288-.712A.97.97 0 0 1 5 4h4c0-.283.096-.52.288-.712A.972.972 0 0 1 10 3h4c.283 0 .521.096.713.288.192.192.288.43.287.712h4c.283 0 .521.096.713.288.192.192.288.43.287.712 0 .283-.097.52-.288.713A.957.957 0 0 1 19 6v13c0 .55-.196 1.021-.587 1.413A1.92 1.92 0 0 1 17 21H7zM17 6H7v13h10V6zm-7 11a.968.968 0 0 0 .713-.288A.964.964 0 0 0 11 16V9a.965.965 0 0 0-.288-.712A.972.972 0 0 0 10 8a.962.962 0 0 0-.712.288A.97.97 0 0 0 9 9v7c0 .283.096.521.288.713.192.192.43.288.712.287zm4 0a.968.968 0 0 0 .713-.288A.964.964 0 0 0 15 16V9a.965.965 0 0 0-.288-.712A.972.972 0 0 0 14 8a.962.962 0 0 0-.712.288A.97.97 0 0 0 13 9v7c0 .283.096.521.288.713.192.192.43.288.712.287z" fill="#F67A7A"/>
</svg>
