<svg width="24" height="24" viewBox="0 0 24 24" fill="none" xmlns="http://www.w3.org/2000/svg">
    <path d="M12 10.5a3 3 0 1 0 0-6 3 3 0 0 0 0 6zM12 9a1.5 1.5 0 1 1 0-3 1.5 1.5 0 0 1 0 3zm-4.5 9a.75.75 0 1 0 0 1.5h9a.75.75 0 1 0 0-1.5h-9zM3.75 4.125A2.625 2.625 0 0 1 6.375 1.5h11.25a2.625 2.625 0 0 1 2.625 2.625v15.75a2.625 2.625 0 0 1-2.625 2.625H6.375a2.625 2.625 0 0 1-2.625-2.625V4.125zM6.375 3A1.125 1.125 0 0 0 5.25 4.125V15H7.5v-2.25a1.5 1.5 0 0 1 1.5-1.5h6a1.5 1.5 0 0 1 1.5 1.5V15h2.25V4.125A1.125 1.125 0 0 0 17.625 3H6.375zM5.25 19.875A1.125 1.125 0 0 0 6.375 21h11.25a1.125 1.125 0 0 0 1.125-1.125V16.5H5.25v3.375zM15 12.75H9V15h6v-2.25z" fill="#0551AB"/>
</svg>
