<svg width="48" height="48" viewBox="0 0 48 48" fill="none" xmlns="http://www.w3.org/2000/svg">
    <path d="M24 0c-3.877 0-6.198.59-7.673 1.327-.739.37-1.263.757-1.616 1.154a3.692 3.692 0 0 0-.577.98 1.846 1.846 0 0 0-.115.462l-.982 12.635c-.013.078.013.203 0 .288l-.114 1.27c-.011.115-.011.23 0 .346 0 6.092 4.984 11.076 11.077 11.076 6.092 0 11.077-4.984 11.077-11.076v-.346L33.98 3.923a1.846 1.846 0 0 0-.115-.461s-.223-.584-.578-.98c-.352-.4-.876-.787-1.615-1.155C30.197.59 27.876 0 24 0zm0 29.538c-12.185 0-22.154 5.735-22.154 10.904V48h44.307v-7.558c0-4.91-9.012-10.32-20.364-10.846a25.853 25.853 0 0 0-1.79-.058zm0-25.846c3.507 0 5.26.554 6 .923.247.124.276.172.347.231l.75 9.462c-1.7.103-4.014.461-7.098.461-3.082 0-5.396-.358-7.096-.461l.75-9.462c.068-.059.1-.107.347-.23.74-.37 2.492-.924 6-.924zm-1.501 1.846v2.194h-2.192v3h2.194v2.191h2.998V10.73h2.193V7.732h-2.193V5.538h-3zM18.46 33.692l4.732 10.616H5.538v-3.866c0-1.376 4.708-5.404 12.923-6.75zm11.077 0c8.215 1.348 12.923 5.374 12.923 6.75v3.866H24.806l4.732-10.616z" fill="#0551AB"/>
</svg>
